<?xml version="1.0" standalone="no"?>
<!DOCTYPE svg PUBLIC "-//W3C//DTD SVG 20010904//EN"
 "http://www.w3.org/TR/2001/REC-SVG-20010904/DTD/svg10.dtd">
<svg version="1.0" xmlns="http://www.w3.org/2000/svg"
 width="1260.000000pt" height="1260.000000pt" viewBox="0 0 1260.000000 1260.000000"
 preserveAspectRatio="xMidYMid meet">
<metadata>
Created by potrace 1.14, written by Peter Selinger 2001-2017
</metadata>
<g transform="translate(0.000000,1260.000000) scale(0.100000,-0.100000)"
fill="#000000" stroke="none">
<path d="M1649 12596 c-2 -2 -31 -6 -64 -10 -77 -8 -100 -12 -200 -35 -235
-54 -457 -159 -672 -318 -84 -62 -244 -216 -310 -298 -183 -229 -319 -517
-368 -785 -34 -182 -34 -112 -32 -4885 2 -2568 6 -4686 10 -4705 4 -19 13 -60
18 -90 21 -113 18 -103 60 -230 26 -82 76 -203 105 -255 12 -22 30 -56 40 -75
136 -251 395 -513 658 -664 223 -128 351 -172 686 -235 71 -13 9313 -14 9415
0 130 17 150 20 260 49 217 57 364 124 553 251 103 69 120 83 235 189 114 105
263 299 344 450 60 112 138 312 158 409 2 9 10 48 19 86 8 39 19 113 25 165
14 122 14 9267 0 9385 -66 574 -395 1078 -890 1362 -193 112 -409 189 -604
218 -16 3 -57 9 -90 14 -56 9 -9346 16 -9356 7z m4971 -840 c114 -7 189 -14
260 -22 25 -3 61 -7 80 -9 60 -5 140 -18 395 -61 204 -35 734 -187 900 -258
17 -8 84 -35 150 -62 116 -47 444 -206 572 -278 190 -106 511 -318 628 -413 6
-5 30 -24 55 -43 25 -19 47 -37 50 -40 3 -3 21 -17 40 -31 19 -15 47 -37 61
-50 14 -13 55 -49 90 -79 157 -134 399 -378 540 -545 19 -22 37 -42 40 -45 3
-3 41 -50 85 -105 489 -609 854 -1345 1038 -2095 34 -140 72 -318 82 -390 2
-19 7 -44 9 -56 3 -11 7 -40 10 -65 3 -24 7 -53 9 -65 2 -12 7 -45 10 -75 4
-30 9 -75 12 -102 31 -255 36 -828 9 -1033 -2 -17 -6 -60 -10 -95 -3 -35 -8
-81 -10 -101 -15 -118 -15 -116 -51 -333 -2 -16 -16 -84 -30 -150 -151 -723
-481 -1463 -927 -2075 -39 -53 -212 -274 -232 -296 -5 -6 -37 -42 -70 -80
-207 -237 -426 -446 -700 -672 -69 -57 -280 -210 -376 -274 -146 -96 -259
-168 -264 -168 -2 0 -43 -23 -92 -51 -80 -47 -396 -209 -407 -209 -2 0 -37
-15 -78 -34 -95 -45 -272 -114 -423 -166 -126 -43 -409 -127 -460 -136 -16 -3
-64 -13 -105 -24 -41 -10 -88 -21 -105 -23 -16 -3 -50 -10 -75 -15 -25 -6 -65
-13 -90 -17 -25 -3 -56 -8 -70 -10 -87 -16 -209 -32 -295 -40 -38 -3 -83 -8
-100 -10 -217 -27 -815 -22 -1050 10 -16 2 -57 7 -90 10 -33 4 -98 13 -145 20
-47 8 -101 16 -120 19 -49 8 -84 15 -170 32 -41 9 -86 18 -100 20 -14 3 -33 7
-42 10 -9 3 -26 7 -37 9 -28 7 -40 10 -156 40 -195 51 -566 182 -735 257 -168
76 -445 213 -509 253 -9 6 -64 38 -121 73 -444 265 -818 566 -1175 943 -138
146 -262 291 -370 435 -33 43 -62 81 -65 84 -6 5 -56 77 -80 114 -8 12 -45 67
-81 122 -285 429 -527 950 -669 1439 -33 113 -76 277 -84 315 -3 14 -14 66
-25 115 -11 50 -22 104 -24 120 -3 17 -12 73 -21 126 -9 53 -18 116 -21 141
-3 25 -8 55 -10 66 -2 12 -7 56 -10 99 -4 43 -9 92 -11 108 -23 182 -22 736 1
950 40 361 57 463 140 835 28 121 167 572 185 595 4 6 13 28 20 50 12 37 75
189 122 295 69 154 218 435 311 585 46 75 172 268 189 290 4 6 42 57 85 115
91 123 78 107 188 240 137 166 308 348 472 500 129 121 136 127 318 278 167
138 488 356 730 494 80 46 395 203 465 233 36 15 83 35 105 45 215 98 755 268
966 305 19 3 52 10 74 15 36 8 148 28 200 35 22 3 95 14 135 20 53 8 121 16
177 20 32 3 74 7 93 10 19 2 91 7 160 10 69 4 126 8 127 9 5 4 408 -2 503 -8z"/>
<path d="M6217 11064 c-1 -1 -67 -5 -147 -9 -242 -11 -437 -33 -620 -70 -14
-2 -38 -7 -55 -9 -72 -12 -100 -18 -267 -60 -513 -130 -1013 -351 -1448 -639
-274 -182 -502 -368 -741 -607 -91 -91 -192 -196 -225 -235 -32 -38 -65 -76
-72 -83 -7 -8 -25 -30 -40 -50 -15 -21 -29 -39 -33 -42 -12 -11 -159 -210
-202 -275 -26 -38 -50 -74 -55 -80 -17 -22 -122 -196 -122 -202 0 -3 -7 -14
-14 -22 -22 -24 -196 -369 -248 -491 -74 -171 -186 -482 -203 -560 -2 -8 -15
-58 -29 -110 -48 -179 -107 -482 -121 -620 -3 -36 -8 -76 -10 -90 -22 -150
-33 -567 -21 -766 9 -136 17 -229 21 -254 2 -14 6 -50 10 -80 3 -30 7 -66 9
-80 2 -14 8 -47 12 -75 4 -27 8 -54 10 -60 1 -5 4 -26 8 -45 19 -109 24 -136
72 -329 19 -74 50 -186 71 -250 20 -64 37 -118 38 -121 1 -3 4 -12 8 -20 3 -8
18 -49 33 -90 170 -470 484 -1013 799 -1380 16 -20 53 -62 80 -95 54 -63 344
-357 410 -415 446 -390 893 -666 1415 -875 293 -117 584 -201 879 -256 135
-25 145 -26 210 -34 30 -4 61 -8 70 -10 9 -1 50 -6 91 -10 41 -4 89 -9 105
-11 57 -6 310 -17 395 -17 83 0 346 11 425 18 71 7 159 16 185 20 14 2 45 6
70 10 70 10 97 15 133 21 17 3 43 7 57 9 74 12 110 20 275 60 221 54 518 151
690 225 120 51 158 69 295 137 342 170 604 339 898 581 154 126 160 131 352
322 224 224 492 548 585 708 6 9 13 19 16 22 9 8 132 209 187 306 169 298 350
739 438 1069 27 104 100 443 108 505 3 19 9 67 15 105 5 39 13 102 17 140 4
39 8 84 10 100 6 60 17 312 17 400 0 101 -12 396 -19 428 -2 11 -6 50 -9 86
-3 37 -7 75 -9 86 -4 21 -19 122 -21 140 -1 11 -18 117 -20 125 -1 3 -5 25 -9
50 -4 25 -11 59 -16 75 -5 17 -11 44 -14 60 -3 17 -16 75 -31 130 -14 55 -27
108 -30 118 -20 83 -100 315 -162 472 -184 461 -439 890 -758 1275 -163 197
-420 456 -600 605 -567 471 -1179 786 -1875 966 -63 17 -124 32 -135 34 -11 3
-40 9 -65 14 -25 6 -58 12 -75 15 -16 2 -37 7 -45 10 -8 3 -31 7 -50 10 -19 2
-69 9 -110 15 -41 6 -91 13 -110 16 -19 2 -57 7 -85 10 -85 10 -125 13 -275
21 -139 6 -320 11 -323 8z m169 -424 c149 -184 300 -393 447 -616 88 -135 297
-478 297 -489 0 -3 11 -22 24 -43 82 -130 304 -589 405 -837 29 -71 57 -139
62 -150 30 -71 163 -447 174 -495 2 -8 18 -62 35 -120 17 -58 33 -112 35 -120
22 -88 57 -237 60 -250 2 -10 12 -60 23 -111 23 -105 58 -300 66 -369 4 -25 8
-56 11 -70 3 -14 7 -56 10 -95 3 -38 8 -81 10 -95 20 -131 27 -687 12 -885
-13 -159 -26 -281 -32 -305 -2 -8 -6 -40 -10 -71 -3 -31 -8 -67 -10 -80 -3
-13 -7 -38 -10 -55 -8 -66 -44 -249 -75 -384 -40 -180 -154 -576 -195 -680 -8
-19 -28 -75 -46 -125 -30 -86 -125 -327 -154 -390 -193 -433 -316 -670 -523
-1015 -167 -278 -459 -704 -567 -827 -5 -6 -23 -29 -40 -50 -16 -20 -45 -54
-63 -75 l-34 -38 -82 103 c-229 285 -474 642 -661 962 -32 55 -65 111 -74 125
-8 14 -22 39 -31 55 -9 17 -52 98 -95 180 -100 188 -221 441 -287 599 -27 67
-56 135 -63 151 -32 73 -165 441 -178 490 -3 11 -22 74 -42 140 -32 107 -81
288 -91 338 -2 10 -6 27 -9 37 -3 10 -7 27 -9 37 -2 10 -12 54 -21 98 -9 44
-19 91 -21 105 -11 61 -34 188 -39 215 -2 17 -7 51 -10 76 -3 25 -7 54 -9 65
-2 10 -7 53 -11 94 -4 41 -9 82 -10 91 -26 133 -26 871 -1 1007 2 9 7 52 11
95 3 43 8 88 10 100 6 37 14 90 20 142 4 28 10 66 15 85 4 19 11 57 15 83 3
27 9 59 11 70 3 12 7 33 10 47 2 14 7 31 10 39 2 8 7 30 10 50 8 54 60 258
105 416 146 508 359 1021 636 1535 23 41 49 91 59 110 11 19 22 37 27 38 4 2
7 8 7 13 0 15 196 334 313 509 167 250 367 516 465 618 26 27 18 32 108 -78z"/>
</g>
</svg>
